<svg width="60" height="60" viewBox="0 0 60 60" fill="none" xmlns="http://www.w3.org/2000/svg">
<path d="M30 38C34.4183 38 38 34.4183 38 30C38 25.5817 34.4183 22 30 22C25.5817 22 22 25.5817 22 30C22 34.4183 25.5817 38 30 38Z" fill="white"/>
<path d="M39.998 6H19.998C12.28 6 6 12.282 6 20.002V40.002C6 47.72 12.282 54 20.002 54H40.002C47.72 54 54 47.718 54 39.998V19.998C54 12.28 47.718 6 39.998 6ZM30 42C23.382 42 18 36.618 18 30C18 23.382 23.382 18 30 18C36.618 18 42 23.382 42 30C42 36.618 36.618 42 30 42ZM44 18C42.896 18 42 17.104 42 16C42 14.896 42.896 14 44 14C45.104 14 46 14.896 46 16C46 17.104 45.104 18 44 18Z" fill="white"/>
</svg>
