<svg width="60" height="60" viewBox="0 0 60 60" fill="none" xmlns="http://www.w3.org/2000/svg">
<path d="M9.59199 41.672L6.21399 54L18.83 50.688L9.59199 41.672Z" fill="white"/>
<path d="M30 6C16.746 6 6 16.746 6 30C6 43.254 16.746 54 30 54C43.254 54 54 43.254 54 30C54 16.746 43.254 6 30 6ZM41.848 38.286C41.354 39.672 38.926 41.012 37.838 41.106C36.74 41.208 35.716 41.6 30.702 39.626C24.654 37.244 20.84 31.048 20.542 30.648C20.244 30.258 18.122 27.428 18.122 24.508C18.122 21.578 19.658 20.144 20.196 19.548C20.744 18.952 21.386 18.804 21.786 18.804C22.176 18.804 22.576 18.804 22.922 18.822C23.35 18.832 23.816 18.86 24.262 19.846C24.792 21.018 25.946 23.958 26.094 24.256C26.242 24.554 26.346 24.908 26.14 25.298C25.944 25.698 25.842 25.94 25.554 26.294C25.256 26.638 24.93 27.066 24.66 27.326C24.362 27.624 24.056 27.95 24.4 28.544C24.744 29.138 25.936 31.084 27.702 32.656C29.972 34.684 31.888 35.308 32.484 35.606C33.08 35.904 33.424 35.858 33.768 35.458C34.122 35.068 35.256 33.728 35.656 33.132C36.046 32.536 36.446 32.638 36.986 32.834C37.534 33.03 40.456 34.472 41.052 34.77C41.648 35.068 42.038 35.216 42.188 35.458C42.342 35.708 42.342 36.898 41.848 38.286Z" fill="white"/>
</svg>
